STARTFONT 2.1
FONT -MIT-31VGI KST-Medium-R-Normal--31-11-200-200-P-16-ISO8859-1
SIZE 11 200 200
FONTBOUNDINGBOX 26 31 -6 -7
STARTPROPERTIES 17
ADD_STYLE_NAME ""
AVERAGE_WIDTH 16
CHARSET_ENCODING "1"
CHARSET_REGISTRY "ISO8859"
DEFAULT_CHAR 0
FAMILY "31VGI KST"
FONT_ASCENT 24
FONT_DESCENT 7
FOUNDRY "MIT"
PIXEL_SIZE 31
POINT_SIZE 11
RESOLUTION_X 200
RESOLUTION_Y 200
SETWIDTH_NAME "Normal"
SLANT "R"
SPACING "P"
WEIGHT_NAME "Medium"
ENDPROPERTIES
CHARS 120
STARTCHAR char2
ENCODING 2
SWIDTH 360 0
DWIDTH 4 0
BBX 5 31 -2 -7
BITMAP
00
00
00
00
00
00
00
00
00
00
00
00
00
00
00
00
18
18
00
00
30
30
30
30
60
60
60
60
C0
C0
00
ENDCHAR
STARTCHAR char3
ENCODING 3
SWIDTH 1080 0
DWIDTH 12 0
BBX 12 31 -2 -7
BITMAP
0000
0000
0000
0000
0000
0000
0000
0000
0000
0000
0000
0000
0000
0000
0000
0CE0
1BE0
1E70
1C30
1830
3060
3060
3860
3CE0
6F80
6700
6000
6000
C000
C000
0000
ENDCHAR
STARTCHAR char4
ENCODING 4
SWIDTH 1800 0
DWIDTH 20 0
BBX 18 31 0 -7
BITMAP
000000
000000
000000
000000
000000
000000
000C00
001E00
006600
006600
006600
00C300
018600
030300
030300
030300
1C0380
1C0380
3801C0
3801C0
C000C0
C000C0
C000C0
000000
000000
000000
000000
000000
000000
000000
000000
ENDCHAR
STARTCHAR char5
ENCODING 5
SWIDTH 1080 0
DWIDTH 12 0
BBX 11 31 -2 -7
BITMAP
0000
0000
0000
0000
0000
0000
0000
0000
0000
0000
0000
0000
0000
0000
0000
0000
0000
0000
0000
03C0
0FC0
1860
0060
07E0
3FC0
60C0
61C0
63C0
FD80
7980
0000
ENDCHAR
STARTCHAR char6
ENCODING 6
SWIDTH 1260 0
DWIDTH 14 0
BBX 13 31 2 -7
BITMAP
0000
0000
0000
0000
0000
00F8
0180
0300
1C00
1C00
3800
3800
F000
FFE0
F000
F000
E000
E000
7000
1800
1800
1800
0F80
0000
0000
0000
0000
0000
0000
0000
0000
ENDCHAR
STARTCHAR char7
ENCODING 7
SWIDTH 1710 0
DWIDTH 19 0
BBX 20 31 0 -7
BITMAP
000000
000000
000000
000000
000000
000000
000000
000000
1FFE00
1FFE00
1FFFE0
0703F0
0E0600
0E0600
0E0600
0E0600
1C0C00
1C0C00
1C0C00
1C0C00
381800
381800
381800
F81800
001F00
000000
000000
000000
000000
000000
000000
ENDCHAR
STARTCHAR char8
ENCODING 8
SWIDTH 1080 0
DWIDTH 12 0
BBX 10 31 -1 -7
BITMAP
0000
0000
0000
0000
0000
0000
0000
0000
0000
0000
0000
0000
0000
0000
0000
0000
0000
0000
0000
0000
0F80
3F80
70C0
60C0
C000
C000
C000
E180
FF00
7E00
0000
ENDCHAR
STARTCHAR char11
ENCODING 11
SWIDTH 1530 0
DWIDTH 17 0
BBX 14 31 4 -7
BITMAP
0180
03E0
07F0
07F0
3B30
7318
C30C
0300
0600
0600
0600
0600
0C00
0C00
0C00
0C00
1800
1800
1800
1800
3000
3000
3000
3000
0000
0000
0000
0000
0000
0000
0000
ENDCHAR
STARTCHAR char14
ENCODING 14
SWIDTH 1080 0
DWIDTH 12 0
BBX 11 31 -2 -7
BITMAP
0000
0000
0000
0000
0000
0000
0000
0000
0000
0000
0000
0000
0000
0000
0000
0000
0000
0000
0000
0000
3060
3060
3060
3060
64C0
6EC0
6EC0
7BC0
E380
C180
0000
ENDCHAR
STARTCHAR char15
ENCODING 15
SWIDTH 1080 0
DWIDTH 12 0
BBX 12 31 -2 -7
BITMAP
0000
0000
0000
0000
0000
0000
0000
0000
0000
0000
0000
0000
0000
0000
0000
0000
0000
0000
0000
1800
36E0
3FF0
3330
3330
6660
6660
6660
6660
CCC0
CCC0
0000
ENDCHAR
STARTCHAR char16
ENCODING 16
SWIDTH 1080 0
DWIDTH 12 0
BBX 11 31 -2 -7
BITMAP
0000
0000
0000
0000
0000
0000
0000
0000
0000
0000
0000
0000
0000
0000
0000
0000
0000
0000
0000
0000
3380
37C0
3C60
3860
6000
6000
6000
6000
C000
C000
0000
ENDCHAR
STARTCHAR char17
ENCODING 17
SWIDTH 1800 0
DWIDTH 20 0
BBX 19 31 1 -7
BITMAP
000000
000000
000000
000000
000000
000000
000000
1FFF00
3FFF00
3FFF00
0003C0
0001E0
0001C0
0001C0
0001C0
0001C0
000780
000F00
FFFC00
FFF800
000000
000000
000000
000000
000000
000000
000000
000000
000000
000000
000000
ENDCHAR
STARTCHAR char18
ENCODING 18
SWIDTH 1080 0
DWIDTH 12 0
BBX 11 31 -1 -7
BITMAP
0000
0000
0000
0000
0000
0000
0000
0000
0000
0000
0000
0000
0000
0000
0000
0000
0060
0060
0060
0060
1EC0
3FC0
71C0
60C0
C180
C180
C380
C780
FB00
7300
0000
ENDCHAR
STARTCHAR char19
ENCODING 19
SWIDTH 360 0
DWIDTH 4 0
BBX 5 31 2 -7
BITMAP
18
18
00
00
30
30
30
30
60
60
60
60
C0
C0
00
00
00
00
00
00
00
00
00
00
00
00
00
00
00
00
00
ENDCHAR
STARTCHAR char20
ENCODING 20
SWIDTH 1710 0
DWIDTH 19 0
BBX 17 31 5 -7
BITMAP
C00380
C00380
700700
700700
E00E00
E00E00
701800
701800
FFF000
FFF000
3FE000
306000
60C000
318000
318000
318000
630000
3E0000
3E0000
3E0000
380000
380000
380000
380000
000000
000000
000000
000000
000000
000000
000000
ENDCHAR
STARTCHAR char21
ENCODING 21
SWIDTH 720 0
DWIDTH 8 0
BBX 7 31 3 -7
BITMAP
00
00
00
00
00
00
00
7E
FC
00
00
00
00
00
00
00
00
00
00
00
00
00
00
00
00
00
00
00
00
00
00
ENDCHAR
STARTCHAR char23
ENCODING 23
SWIDTH 1350 0
DWIDTH 15 0
BBX 14 31 4 -7
BITMAP
0000
38F0
7DF8
6F9C
CE18
0C18
0C18
0C18
1830
1830
1830
1830
3060
3060
3060
3060
60C0
60C0
60C0
60C0
0180
0180
0180
0180
0000
0000
0000
0000
0000
0000
0000
ENDCHAR
STARTCHAR char24
ENCODING 24
SWIDTH 1980 0
DWIDTH 22 0
BBX 19 31 2 -7
BITMAP
000000
000000
000000
000000
000000
000000
000000
008000
030000
030000
060000
1C0000
700000
FFFFE0
FFFFE0
FFFFE0
E00000
700000
180000
0C0000
080000
080000
000000
000000
000000
000000
000000
000000
000000
000000
000000
ENDCHAR
STARTCHAR char25
ENCODING 25
SWIDTH 1980 0
DWIDTH 22 0
BBX 19 31 2 -7
BITMAP
000000
000000
000000
000000
000000
000000
000000
000200
000600
000600
000380
0001C0
0000C0
FFFFE0
FFFFE0
FFFFE0
000180
000700
000E00
001800
002000
002000
000000
000000
000000
000000
000000
000000
000000
000000
000000
ENDCHAR
STARTCHAR char26
ENCODING 26
SWIDTH 1710 0
DWIDTH 19 0
BBX 21 31 0 -7
BITMAP
000000
000000
000038
000038
000070
0000C0
0000C0
000180
000300
000300
000600
0FFFE0
1FFFC0
003800
007000
007000
3FFF80
3FFF80
030000
060000
0C0000
0C0000
380000
380000
E00000
E00000
000000
000000
000000
000000
000000
ENDCHAR
STARTCHAR char28
ENCODING 28
SWIDTH 1260 0
DWIDTH 14 0
BBX 14 31 3 -7
BITMAP
03C0
1998
399C
3DBC
1FE0
0FC0
1FE0
7B78
E670
6660
0F00
0F00
0000
0000
0000
0000
0000
0000
0000
0000
0000
0000
0000
0000
0000
0000
0000
0000
0000
0000
0000
ENDCHAR
STARTCHAR char29
ENCODING 29
SWIDTH 630 0
DWIDTH 7 0
BBX 4 31 5 -7
BITMAP
00
00
00
00
60
F0
F0
60
00
00
00
00
00
00
00
00
00
00
00
00
00
00
00
00
00
00
00
00
00
00
00
ENDCHAR
STARTCHAR char30
ENCODING 30
SWIDTH 810 0
DWIDTH 9 0
BBX 9 31 -2 -7
BITMAP
0000
0000
0000
0000
0000
0000
0000
0000
0000
0000
0000
0000
0000
0000
0000
0000
1F80
1F80
0600
0600
0C00
0C00
0C00
0C00
1800
1800
1800
1800
FC00
FC00
0000
ENDCHAR
STARTCHAR char31
ENCODING 31
SWIDTH 1800 0
DWIDTH 20 0
BBX 19 31 3 -7
BITMAP
000000
000000
000000
000000
000000
000000
000000
600060
C000C0
C000C0
700380
700380
700E00
700E00
181800
181800
303000
186000
186000
0CC000
198000
198000
0F0000
060000
000000
000000
000000
000000
000000
000000
000000
ENDCHAR
STARTCHAR char32
ENCODING 32
SWIDTH 1080 0
DWIDTH 12 0
BBX 1 31 0 -7
BITMAP
00
00
00
00
00
00
00
00
00
00
00
00
00
00
00
00
00
00
00
00
00
00
00
00
00
00
00
00
00
00
00
ENDCHAR
STARTCHAR char33
ENCODING 33
SWIDTH 720 0
DWIDTH 8 0
BBX 10 31 1 -7
BITMAP
0000
0380
07C0
07C0
0F80
0F80
0F80
0F80
0E00
0E00
0E00
0E00
1C00
1C00
1C00
1C00
0000
0000
0000
3800
F800
F800
F800
7000
0000
0000
0000
0000
0000
0000
0000
ENDCHAR
STARTCHAR char34
ENCODING 34
SWIDTH 1170 0
DWIDTH 13 0
BBX 11 31 5 -7
BITMAP
79E0
79E0
79E0
79E0
F3C0
F3C0
F3C0
6180
0000
0000
0000
0000
0000
0000
0000
0000
0000
0000
0000
0000
0000
0000
0000
0000
0000
0000
0000
0000
0000
0000
0000
ENDCHAR
STARTCHAR char35
ENCODING 35
SWIDTH 1710 0
DWIDTH 19 0
BBX 18 31 2 -7
BITMAP
000000
000000
000000
000000
000000
000000
000000
018600
030C00
030C00
030C00
3FFFC0
7FFF80
061800
061800
061800
0C3000
FFFF00
FFFF00
0C3000
186000
186000
186000
000000
000000
000000
000000
000000
000000
000000
000000
ENDCHAR
STARTCHAR char36
ENCODING 36
SWIDTH 1620 0
DWIDTH 18 0
BBX 19 31 1 -7
BITMAP
000000
006300
007F00
01FFE0
07C7E0
06C7E0
0EC6E0
0EC600
1D8C00
1D8C00
1D8C00
0F8C00
1FF800
0FFE00
03FF00
031F00
063700
063700
063700
763700
EC6E00
FC7C00
7FFC00
1FF800
18C000
000000
000000
000000
000000
000000
000000
ENDCHAR
STARTCHAR char37
ENCODING 37
SWIDTH 1620 0
DWIDTH 18 0
BBX 17 31 2 -7
BITMAP
000000
000000
000380
070380
1F8700
318E00
318E00
319C00
3E3800
1C3800
007000
007000
01C000
01C000
038000
038000
070000
0E3800
1C7C00
38C600
718C00
718C00
E0F800
E07000
000000
000000
000000
000000
000000
000000
000000
ENDCHAR
STARTCHAR char38
ENCODING 38
SWIDTH 2070 0
DWIDTH 23 0
BBX 23 31 0 -7
BITMAP
000000
000F80
0039E0
0039E0
0061C0
00C0F0
00E0C0
00E1C0
00E700
00E700
00FC00
00F87E
0FF010
1E7810
1C3C10
1C3C10
787860
781C40
781C40
7C0F80
F80F00
F80F00
7C1F80
3FF3E0
0E0000
000000
000000
000000
000000
000000
000000
ENDCHAR
STARTCHAR char39
ENCODING 39
SWIDTH 720 0
DWIDTH 8 0
BBX 7 31 4 -7
BITMAP
00
7C
7E
7E
CC
04
0C
38
E0
E0
00
00
00
00
00
00
00
00
00
00
00
00
00
00
00
00
00
00
00
00
00
ENDCHAR
STARTCHAR char40
ENCODING 40
SWIDTH 990 0
DWIDTH 11 0
BBX 11 31 1 -7
BITMAP
0020
0060
00C0
00C0
0180
0700
0700
0700
1C00
1C00
1C00
3C00
7000
7000
7000
7000
F000
7000
7000
7000
7000
7000
7000
1800
3000
3000
1800
0800
0000
0000
0000
ENDCHAR
STARTCHAR char41
ENCODING 41
SWIDTH 990 0
DWIDTH 11 0
BBX 11 31 -1 -7
BITMAP
0200
0300
0180
0180
0300
01C0
01C0
01C0
01C0
01C0
01C0
01E0
01C0
01C0
01C0
01C0
0780
0700
0700
0700
1C00
1C00
1C00
3000
6000
6000
C000
8000
0000
0000
0000
ENDCHAR
STARTCHAR char42
ENCODING 42
SWIDTH 1440 0
DWIDTH 16 0
BBX 15 31 1 -7
BITMAP
0000
0000
0000
0000
0000
0000
0040
00E0
01C0
01C0
3C8E
3EBE
1FF0
0380
0380
0380
3FE0
FAF8
F238
0700
0E00
0E00
0400
0000
0000
0000
0000
0000
0000
0000
0000
ENDCHAR
STARTCHAR char43
ENCODING 43
SWIDTH 1620 0
DWIDTH 18 0
BBX 15 31 3 -7
BITMAP
0000
0000
0000
0000
0000
0000
0000
00E0
01C0
01C0
01C0
01C0
0380
FFFE
FFFE
FFFE
0700
0700
0700
0700
0E00
0E00
0000
0000
0000
0000
0000
0000
0000
0000
0000
ENDCHAR
STARTCHAR char44
ENCODING 44
SWIDTH 630 0
DWIDTH 7 0
BBX 7 31 -2 -7
BITMAP
00
00
00
00
00
00
00
00
00
00
00
00
00
00
00
00
00
00
00
0E
3E
3E
3E
0E
1C
3C
38
38
E0
80
00
ENDCHAR
STARTCHAR char45
ENCODING 45
SWIDTH 1440 0
DWIDTH 16 0
BBX 12 31 3 -7
BITMAP
0000
0000
0000
0000
0000
0000
0000
0000
0000
0000
0000
0000
0000
FFF0
FFF0
FFF0
0000
0000
0000
0000
0000
0000
0000
0000
0000
0000
0000
0000
0000
0000
0000
ENDCHAR
STARTCHAR char46
ENCODING 46
SWIDTH 630 0
DWIDTH 7 0
BBX 4 31 0 -7
BITMAP
00
00
00
00
00
00
00
00
00
00
00
00
00
00
00
00
00
00
00
00
60
F0
F0
60
00
00
00
00
00
00
00
ENDCHAR
STARTCHAR char47
ENCODING 47
SWIDTH 1440 0
DWIDTH 16 0
BBX 19 31 -1 -7
BITMAP
000060
0000E0
0000C0
0000C0
000180
000780
000700
000700
001E00
001E00
001C00
001C00
007800
006000
006000
006000
01C000
018000
018000
038000
060000
060000
060000
1E0000
380000
380000
780000
780000
E00000
E00000
000000
ENDCHAR
STARTCHAR char48
ENCODING 48
SWIDTH 1710 0
DWIDTH 19 0
BBX 19 31 2 -7
BITMAP
000000
007E00
00FF00
01FF80
078780
0F03C0
0E01C0
1E01E0
3801C0
3801C0
3801C0
3801C0
700380
700380
700380
700380
E00700
F00F00
700E00
781E00
787800
3FF000
1FE000
0FC000
000000
000000
000000
000000
000000
000000
000000
ENDCHAR
STARTCHAR char49
ENCODING 49
SWIDTH 1710 0
DWIDTH 19 0
BBX 11 31 4 -7
BITMAP
0000
00E0
01E0
07E0
0FC0
01C0
01C0
01C0
0380
0380
0380
0380
0700
0700
0700
0700
0E00
0E00
0E00
0E00
1C00
1C00
FF80
FF80
0000
0000
0000
0000
0000
0000
0000
ENDCHAR
STARTCHAR char50
ENCODING 50
SWIDTH 1710 0
DWIDTH 19 0
BBX 19 31 2 -7
BITMAP
000000
003E00
00FF80
01FFC0
07C7C0
0F01E0
0E00E0
0E00E0
0001C0
0003C0
0007C0
000F80
003E00
007C00
01F800
03F000
0FC000
1F0000
3E0000
3C0000
F00000
FFFE00
FFFE00
FFFE00
000000
000000
000000
000000
000000
000000
000000
ENDCHAR
STARTCHAR char51
ENCODING 51
SWIDTH 1710 0
DWIDTH 19 0
BBX 19 31 2 -7
BITMAP
000000
00FF00
03FF80
07FFC0
0F07C0
1E01E0
1C00E0
1C00E0
0001C0
0003C0
000780
01FF00
03FC00
03FE00
000F00
000780
000700
E00700
E00700
F00F00
F07C00
FFF800
7FF000
1FE000
000000
000000
000000
000000
000000
000000
000000
ENDCHAR
STARTCHAR char52
ENCODING 52
SWIDTH 1710 0
DWIDTH 19 0
BBX 18 31 2 -7
BITMAP
000000
000FC0
001FC0
001FC0
007380
007380
00E380
00E380
038700
038700
070700
070700
1C0E00
1C0E00
380E00
7FFFC0
FFFF80
FFFF80
001C00
001C00
003800
003800
003800
003800
000000
000000
000000
000000
000000
000000
000000
ENDCHAR
STARTCHAR char53
ENCODING 53
SWIDTH 1710 0
DWIDTH 19 0
BBX 19 31 2 -7
BITMAP
000000
07FFE0
07FFE0
07FFE0
0E0000
0E0000
0E0000
0E0000
1C0000
1DFE00
1FFF00
1FFF80
3E0F00
3C0780
000380
000380
000700
000700
000700
780F00
F83E00
FFFC00
3FF800
0FF000
000000
000000
000000
000000
000000
000000
000000
ENDCHAR
STARTCHAR char54
ENCODING 54
SWIDTH 1710 0
DWIDTH 19 0
BBX 17 31 3 -7
BITMAP
000000
00FC00
01FF00
03FF80
0F8780
0F0380
1E0000
1E0000
380000
380000
3BF000
3FFC00
7FF800
7C3C00
781E00
700E00
E01C00
E01C00
E01C00
F03C00
F0F800
FFF000
7FE000
1F8000
000000
000000
000000
000000
000000
000000
000000
ENDCHAR
STARTCHAR char55
ENCODING 55
SWIDTH 1710 0
DWIDTH 19 0
BBX 18 31 4 -7
BITMAP
000000
0FFFC0
0FFFC0
0FFFC0
000780
000700
000F00
000E00
003C00
003800
007800
007000
01E000
01C000
03C000
038000
0F0000
0E0000
1E0000
1C0000
780000
700000
F00000
E00000
000000
000000
000000
000000
000000
000000
000000
ENDCHAR
STARTCHAR char56
ENCODING 56
SWIDTH 1710 0
DWIDTH 19 0
BBX 19 31 1 -7
BITMAP
000000
007F80
01FFE0
01FFE0
0781E0
0700E0
0700E0
0700E0
0F03C0
078780
07CF80
01FE00
01F800
07FE00
1F9F80
1E0780
780780
700380
700380
780780
F81F00
7FFE00
7FFE00
1FF800
000000
000000
000000
000000
000000
000000
000000
ENDCHAR
STARTCHAR char57
ENCODING 57
SWIDTH 1710 0
DWIDTH 19 0
BBX 18 31 3 -7
BITMAP
000000
007E00
01FF80
03FFC0
0F8780
0F03C0
0E01C0
0E01C0
1C0380
1C0380
1E0780
1F0F80
1FFF00
0FFF00
03F700
000700
000E00
001E00
001E00
703C00
F0F800
7FF000
3FE000
1FC000
000000
000000
000000
000000
000000
000000
000000
ENDCHAR
STARTCHAR char58
ENCODING 58
SWIDTH 720 0
DWIDTH 8 0
BBX 8 31 1 -7
BITMAP
00
00
00
00
00
00
00
00
00
00
0E
1F
3E
1C
00
00
00
00
00
38
F8
F8
F8
70
00
00
00
00
00
00
00
ENDCHAR
STARTCHAR char59
ENCODING 59
SWIDTH 630 0
DWIDTH 7 0
BBX 10 31 -2 -7
BITMAP
0000
0000
0000
0000
0000
0000
0000
0000
0000
0000
0380
07C0
0F80
0700
0000
0000
0000
0000
0E00
1F00
3E00
3E00
0E00
0E00
3C00
3800
6000
6000
8000
0000
0000
ENDCHAR
STARTCHAR char60
ENCODING 60
SWIDTH 1530 0
DWIDTH 17 0
BBX 16 31 2 -7
BITMAP
0000
0000
0000
0000
0000
0003
000F
007C
03E0
03E0
1F00
7C00
F800
3E00
07C0
07C0
03E0
0078
0018
0000
0000
0000
0000
0000
0000
0000
0000
0000
0000
0000
0000
ENDCHAR
STARTCHAR char61
ENCODING 61
SWIDTH 1710 0
DWIDTH 19 0
BBX 18 31 2 -7
BITMAP
000000
000000
000000
000000
000000
000000
000000
000000
000000
000000
000000
3FFFC0
7FFF80
000000
000000
000000
FFFF00
FFFF00
000000
000000
000000
000000
000000
000000
000000
000000
000000
000000
000000
000000
000000
ENDCHAR
STARTCHAR char62
ENCODING 62
SWIDTH 1530 0
DWIDTH 17 0
BBX 16 31 1 -7
BITMAP
0000
0000
0000
0000
0000
1800
1F00
07C0
01F0
01F0
007C
000F
001E
00F8
03E0
03E0
3E00
F800
C000
0000
0000
0000
0000
0000
0000
0000
0000
0000
0000
0000
0000
ENDCHAR
STARTCHAR char63
ENCODING 63
SWIDTH 1170 0
DWIDTH 13 0
BBX 13 31 2 -7
BITMAP
0000
07E0
0E78
0E78
3030
3C38
3C78
1078
01F0
01F0
03E0
0780
0E00
0C00
0800
0800
1000
1000
0000
0000
3000
3000
F800
3000
0000
0000
0000
0000
0000
0000
0000
ENDCHAR
STARTCHAR char64
ENCODING 64
SWIDTH 2160 0
DWIDTH 24 0
BBX 24 31 1 -7
BITMAP
000000
000000
000000
000000
000000
000000
007FF8
00FFFC
03801C
07001C
0E000E
1C7E07
39FE0E
33C78E
33838E
33838E
67071C
67071C
670738
678FF0
C7FFC0
C1FC00
E00000
7FFFF8
3FFFF0
000000
000000
000000
000000
000000
000000
ENDCHAR
STARTCHAR char65
ENCODING 65
SWIDTH 1890 0
DWIDTH 21 0
BBX 19 31 0 -7
BITMAP
000000
000700
000700
000F80
001F00
001F00
003B80
003B80
007700
00E380
00E380
00E380
038380
038380
038380
07FFC0
0FFF80
0FFF80
1C01C0
1C01C0
380380
7001C0
7001C0
F001E0
000000
000000
000000
000000
000000
000000
000000
ENDCHAR
STARTCHAR char66
ENCODING 66
SWIDTH 1800 0
DWIDTH 20 0
BBX 21 31 1 -7
BITMAP
000000
07FFC0
07FFF0
07FFF8
0E01F8
0E0078
0E0038
0E0038
1C0070
1C00F0
1C03E0
1FFFC0
3FFE00
3FFF80
3807C0
3801E0
7001C0
7001C0
7001C0
7003C0
E01F80
FFFF00
FFFE00
FFF800
000000
000000
000000
000000
000000
000000
000000
ENDCHAR
STARTCHAR char67
ENCODING 67
SWIDTH 1800 0
DWIDTH 20 0
BBX 21 31 1 -7
BITMAP
000000
003F80
00FFE0
01FFF0
07C1F0
0F80F8
0F0078
1E0038
3C0000
380000
380000
380000
700000
700000
700000
700000
F00000
F001C0
7803C0
7C07C0
7C1F00
3FFE00
1FFC00
07F000
000000
000000
000000
000000
000000
000000
000000
ENDCHAR
STARTCHAR char68
ENCODING 68
SWIDTH 1800 0
DWIDTH 20 0
BBX 21 31 1 -7
BITMAP
000000
07FF80
07FFE0
07FFF0
0E03F0
0E00F0
0E0078
0E0078
1C0070
1C0070
1C0070
1C0070
3800E0
3800E0
3800E0
3800E0
7001C0
7003C0
7003C0
7007C0
E03F00
FFFF00
FFFC00
FFF000
000000
000000
000000
000000
000000
000000
000000
ENDCHAR
STARTCHAR char69
ENCODING 69
SWIDTH 1620 0
DWIDTH 18 0
BBX 20 31 1 -7
BITMAP
000000
07FFF0
07FFF0
07FFF0
0E0000
0E0000
0E0000
0E0000
1C0000
1C0000
1C0000
1FFC00
3FF800
3FF800
380000
380000
700000
700000
700000
700000
E00000
FFFE00
FFFE00
FFFE00
000000
000000
000000
000000
000000
000000
000000
ENDCHAR
STARTCHAR char70
ENCODING 70
SWIDTH 1620 0
DWIDTH 18 0
BBX 20 31 1 -7
BITMAP
000000
07FFF0
07FFF0
07FFF0
0E0000
0E0000
0E0000
0E0000
1C0000
1C0000
1C0000
1FFC00
3FF800
3FF800
380000
380000
700000
700000
700000
700000
E00000
E00000
E00000
E00000
000000
000000
000000
000000
000000
000000
000000
ENDCHAR
STARTCHAR char71
ENCODING 71
SWIDTH 1890 0
DWIDTH 21 0
BBX 21 31 2 -7
BITMAP
000000
00FFC0
01FFF0
03FFF0
0F81F0
0F0078
1E0038
1E0038
380000
380000
380000
380000
700000
701FE0
701FE0
701FE0
E001C0
F001C0
F003C0
7807C0
F81F80
7FFF80
3FFD80
1FF980
000000
000000
000000
000000
000000
000000
000000
ENDCHAR
STARTCHAR char72
ENCODING 72
SWIDTH 1710 0
DWIDTH 19 0
BBX 21 31 1 -7
BITMAP
000000
070038
070038
070038
0E0070
0E0070
0E0070
0E0070
1C00E0
1C00E0
1C00E0
1FFFE0
3FFFC0
3FFFC0
3801C0
3801C0
700380
700380
700380
700380
E00700
E00700
E00700
E00700
000000
000000
000000
000000
000000
000000
000000
ENDCHAR
STARTCHAR char73
ENCODING 73
SWIDTH 630 0
DWIDTH 7 0
BBX 8 31 1 -7
BITMAP
00
07
07
07
0E
0E
0E
0E
1C
1C
1C
1C
38
38
38
38
70
70
70
70
E0
E0
E0
E0
00
00
00
00
00
00
00
ENDCHAR
STARTCHAR char74
ENCODING 74
SWIDTH 1530 0
DWIDTH 17 0
BBX 18 31 0 -7
BITMAP
000000
0001C0
0001C0
0001C0
000380
000380
000380
000380
000700
000700
000700
000700
000E00
000E00
000E00
000E00
001C00
001C00
701C00
703C00
F07800
7FF800
7FF000
1FC000
000000
000000
000000
000000
000000
000000
000000
ENDCHAR
STARTCHAR char75
ENCODING 75
SWIDTH 1710 0
DWIDTH 19 0
BBX 20 31 1 -7
BITMAP
000000
070070
0700F0
0701F0
0E07C0
0E0F80
0E1F00
0E3E00
1CF800
1DF000
1FE000
1FC000
3F0000
3F8000
3BC000
39E000
71E000
70F000
707800
703C00
E03C00
E01E00
E01E00
E00E00
000000
000000
000000
000000
000000
000000
000000
ENDCHAR
STARTCHAR char76
ENCODING 76
SWIDTH 1440 0
DWIDTH 16 0
BBX 13 31 1 -7
BITMAP
0000
0700
0700
0700
0E00
0E00
0E00
0E00
1C00
1C00
1C00
1C00
3800
3800
3800
3800
7000
7000
7000
7000
E000
FFF8
FFF8
FFF8
0000
0000
0000
0000
0000
0000
0000
ENDCHAR
STARTCHAR char77
ENCODING 77
SWIDTH 2250 0
DWIDTH 25 0
BBX 26 31 1 -7
BITMAP
00000000
070001C0
078003C0
078003C0
0F800F80
0F800F80
0F800F80
0FC01F80
1F803F00
1FC07F00
1FC07F00
1DE0F700
3BC1EE00
3BC1EE00
39E3CE00
39E3CE00
71C71C00
71EF1C00
70EE1C00
70FE1C00
E1FC3800
E0F83800
E0F83800
E0703800
00000000
00000000
00000000
00000000
00000000
00000000
00000000
ENDCHAR
STARTCHAR char78
ENCODING 78
SWIDTH 1800 0
DWIDTH 20 0
BBX 22 31 1 -7
BITMAP
000000
07C01C
07C01C
07E01C
0FC038
0FE038
0FE038
0EF038
1DE070
1CF070
1CF070
1C7870
38F0E0
3878E0
3878E0
383CE0
7079C0
703DC0
703DC0
701FC0
E03F80
E01F80
E01F80
E00F80
000000
000000
000000
000000
000000
000000
000000
ENDCHAR
STARTCHAR char79
ENCODING 79
SWIDTH 1800 0
DWIDTH 20 0
BBX 20 31 1 -7
BITMAP
000000
003F00
00FFC0
01FFE0
0781E0
0700E0
0E0070
0E0070
380070
380070
380070
380070
7000E0
7000E0
7000E0
7000E0
E001C0
E001C0
F003C0
700380
F00F00
781E00
7FFE00
3FFC00
0FC000
000000
000000
000000
000000
000000
000000
ENDCHAR
STARTCHAR char80
ENCODING 80
SWIDTH 1710 0
DWIDTH 19 0
BBX 20 31 1 -7
BITMAP
000000
07FFC0
07FFE0
07FFF0
0E01F0
0E00F0
0E0070
0E0070
1C00E0
1C01E0
1C03E0
1FFFC0
3FFF00
3FFC00
380000
380000
700000
700000
700000
700000
E00000
E00000
E00000
E00000
000000
000000
000000
000000
000000
000000
000000
ENDCHAR
STARTCHAR char81
ENCODING 81
SWIDTH 1800 0
DWIDTH 20 0
BBX 20 31 1 -7
BITMAP
000000
003F00
00FFC0
01FFE0
0781E0
0700E0
0E0070
0E0070
380070
380070
380070
380070
7000E0
7000E0
7000E0
7000E0
E001C0
E001C0
F003C0
700380
F00F00
781E00
7FFE00
3FFC00
0FC000
01E000
00FC00
007E00
007C00
000000
000000
ENDCHAR
STARTCHAR char82
ENCODING 82
SWIDTH 1710 0
DWIDTH 19 0
BBX 20 31 1 -7
BITMAP
000000
07FFC0
07FFE0
07FFF0
0E01F0
0E00F0
0E0070
0E0070
1C00E0
1C01E0
1C03E0
1FFFC0
3FFF00
3FFC00
387800
383C00
707800
703C00
701E00
701F00
E01E00
E00F00
E00F00
E00700
000000
000000
000000
000000
000000
000000
000000
ENDCHAR
STARTCHAR char83
ENCODING 83
SWIDTH 1620 0
DWIDTH 18 0
BBX 19 31 1 -7
BITMAP
000000
003E00
00FF80
01FFE0
07C7E0
0701E0
0E00E0
0E0000
1C0000
1C0000
1E0000
0F8000
1FF000
0FFE00
03FF00
003F00
000F00
000700
000700
700700
F01E00
FC7C00
7FFC00
1FF800
0F8000
000000
000000
000000
000000
000000
000000
ENDCHAR
STARTCHAR char84
ENCODING 84
SWIDTH 1710 0
DWIDTH 19 0
BBX 17 31 5 -7
BITMAP
000000
FFFF80
FFFF80
FFFF80
038000
038000
038000
038000
070000
070000
070000
070000
0E0000
0E0000
0E0000
0E0000
1C0000
1C0000
1C0000
1C0000
380000
380000
380000
380000
000000
000000
000000
000000
000000
000000
000000
ENDCHAR
STARTCHAR char85
ENCODING 85
SWIDTH 1800 0
DWIDTH 20 0
BBX 21 31 2 -7
BITMAP
000000
0E0038
0E0038
0E0038
1C0070
1C0070
1C0070
1C0070
3800E0
3800E0
3800E0
3800E0
7001C0
7001C0
7001C0
7001C0
E00380
E00380
E00380
F00780
F01E00
FFFE00
7FFC00
1FF000
000000
000000
000000
000000
000000
000000
000000
ENDCHAR
STARTCHAR char86
ENCODING 86
SWIDTH 1800 0
DWIDTH 20 0
BBX 19 31 4 -7
BITMAP
000000
7000E0
7000E0
7801E0
F003C0
700380
780780
380700
700E00
700E00
781E00
381C00
703800
787800
787800
387000
70E000
79E000
39C000
39C000
7F8000
7F8000
1E0000
1E0000
000000
000000
000000
000000
000000
000000
000000
ENDCHAR
STARTCHAR char87
ENCODING 87
SWIDTH 2790 0
DWIDTH 31 0
BBX 30 31 4 -7
BITMAP
00000000
7000001C
7000001C
7000001C
F0070078
70070070
70070070
780F80F0
701F01C0
701F01C0
783F83C0
383B8380
70770700
78F78F00
38E38E00
38E38E00
7BC7BC00
3B83B800
3F83F800
3F83F800
3E03E000
3E03E000
1C01C000
1C01C000
00000000
00000000
00000000
00000000
00000000
00000000
00000000
ENDCHAR
STARTCHAR char88
ENCODING 88
SWIDTH 1710 0
DWIDTH 19 0
BBX 22 31 0 -7
BITMAP
000000
07001C
07001C
07803C
0780F0
0780F0
03C1E0
01E3C0
03C780
01EF00
00FE00
007C00
007000
00F800
01FC00
03DE00
0F1E00
0F1E00
1E0F00
3C0780
780F00
F00780
E00380
E00380
000000
000000
000000
000000
000000
000000
000000
ENDCHAR
STARTCHAR char89
ENCODING 89
SWIDTH 1710 0
DWIDTH 19 0
BBX 17 31 5 -7
BITMAP
000000
E00380
E00380
F00780
F01E00
F01E00
783C00
3C7800
78F000
3DE000
1FC000
0F8000
1F0000
0E0000
0E0000
0E0000
1C0000
1C0000
1C0000
1C0000
380000
380000
380000
380000
000000
000000
000000
000000
000000
000000
000000
ENDCHAR
STARTCHAR char90
ENCODING 90
SWIDTH 1620 0
DWIDTH 18 0
BBX 21 31 0 -7
BITMAP
000000
07FFF8
07FFF8
07FFF8
0000F0
0001E0
0001E0
0003C0
000F80
001F00
001E00
003C00
00F800
01F000
01E000
03C000
0F8000
1F0000
1E0000
3C0000
F80000
FFFF00
FFFF00
FFFF00
000000
000000
000000
000000
000000
000000
000000
ENDCHAR
STARTCHAR char91
ENCODING 91
SWIDTH 1080 0
DWIDTH 12 0
BBX 16 31 -1 -7
BITMAP
01FF
01FF
01C0
01C0
0380
0380
0380
0380
0700
0700
0700
0700
0E00
0E00
0E00
0E00
1C00
1C00
1C00
1C00
3800
3800
3800
3800
7000
7000
7000
7000
FF80
FF80
0000
ENDCHAR
STARTCHAR char92
ENCODING 92
SWIDTH 1440 0
DWIDTH 16 0
BBX 6 31 6 -7
BITMAP
E0
F0
70
70
E0
F0
30
30
70
70
30
30
70
30
30
30
78
38
38
3C
38
38
38
3C
18
18
1C
1C
18
18
00
ENDCHAR
STARTCHAR char93
ENCODING 93
SWIDTH 1080 0
DWIDTH 12 0
BBX 16 31 -1 -7
BITMAP
01FF
01FF
0007
0007
000E
000E
000E
000E
001C
001C
001C
001C
0038
0038
0038
0038
0070
0070
0070
0070
00E0
00E0
00E0
00E0
01C0
01C0
01C0
01C0
FF80
FF80
0000
ENDCHAR
STARTCHAR char94
ENCODING 94
SWIDTH 1710 0
DWIDTH 19 0
BBX 17 31 3 -7
BITMAP
002000
007000
00F800
01FC00
071C00
0E0E00
1C0700
380380
E00380
000000
000000
000000
000000
000000
000000
000000
000000
000000
000000
000000
000000
000000
000000
000000
000000
000000
000000
000000
000000
000000
000000
ENDCHAR
STARTCHAR char95
ENCODING 95
SWIDTH 1710 0
DWIDTH 19 0
BBX 19 31 -1 -7
BITMAP
000000
000000
000000
000000
000000
000000
000000
000000
000000
000000
000000
000000
000000
000000
000000
000000
000000
000000
000000
000000
000000
000000
000000
000000
000000
FFFFE0
FFFFE0
FFFFE0
000000
000000
000000
ENDCHAR
STARTCHAR char96
ENCODING 96
SWIDTH 720 0
DWIDTH 8 0
BBX 7 31 4 -7
BITMAP
00
3C
7E
7E
F8
80
C0
70
70
70
18
00
00
00
00
00
00
00
00
00
00
00
00
00
00
00
00
00
00
00
00
ENDCHAR
STARTCHAR char97
ENCODING 97
SWIDTH 1440 0
DWIDTH 16 0
BBX 15 31 1 -7
BITMAP
0000
0000
0000
0000
0000
0000
0000
0000
01F0
07FC
0FFE
1E0E
380E
000E
03EE
0FFE
3FFC
783C
701C
701C
E078
F9F8
7FB8
3F38
0000
0000
0000
0000
0000
0000
0000
ENDCHAR
STARTCHAR char98
ENCODING 98
SWIDTH 1620 0
DWIDTH 18 0
BBX 17 31 1 -7
BITMAP
000000
070000
070000
070000
0E0000
0E0000
0E0000
0E0000
1CFC00
1DFE00
1FFF00
1F8780
3E0700
3C0780
380380
380380
700700
700700
780F00
7C0E00
FC3C00
FFF800
EFF000
E7E000
000000
000000
000000
000000
000000
000000
000000
ENDCHAR
STARTCHAR char99
ENCODING 99
SWIDTH 1350 0
DWIDTH 15 0
BBX 15 31 1 -7
BITMAP
0000
0000
0000
0000
0000
0000
0000
0000
03F0
0FFC
0FFC
1E1E
381C
7800
7000
7000
E000
E000
F000
7038
F0F0
7FE0
7FE0
1F80
0000
0000
0000
0000
0000
0000
0000
ENDCHAR
STARTCHAR char100
ENCODING 100
SWIDTH 1530 0
DWIDTH 17 0
BBX 19 31 1 -7
BITMAP
000000
0000E0
0000E0
0000E0
0001C0
0001C0
0001C0
0001C0
03F380
07FB80
0FFF80
1E1F80
381F00
780F00
700700
700700
E00E00
E00E00
F01E00
F03E00
F0FC00
FFFC00
7FFC00
1F9C00
000000
000000
000000
000000
000000
000000
000000
ENDCHAR
STARTCHAR char101
ENCODING 101
SWIDTH 1620 0
DWIDTH 18 0
BBX 16 31 2 -7
BITMAP
0000
0000
0000
0000
0000
0000
0000
0000
01F0
07FC
0FFE
1E0F
380E
7007
7FFF
7FFF
FFFE
E000
E000
F00E
F03C
FFF8
7FF0
1FC0
0000
0000
0000
0000
0000
0000
0000
ENDCHAR
STARTCHAR char102
ENCODING 102
SWIDTH 990 0
DWIDTH 11 0
BBX 11 31 3 -7
BITMAP
0000
00E0
01E0
03E0
0700
0E00
0E00
0E00
7F80
7F80
7F80
1C00
3800
3800
3800
3800
7000
7000
7000
7000
E000
E000
E000
E000
0000
0000
0000
0000
0000
0000
0000
ENDCHAR
STARTCHAR char103
ENCODING 103
SWIDTH 1440 0
DWIDTH 16 0
BBX 18 31 0 -7
BITMAP
000000
000000
000000
000000
000000
000000
000000
000000
01F9C0
03FDC0
07FF80
070E00
1C0E00
1C0E00
1C0E00
1E1E00
1FF800
1FF800
0FE000
3C0000
700000
37E000
1FF800
3FFC00
F07800
E03800
F07800
FFF800
FFE000
3F8000
000000
ENDCHAR
STARTCHAR char104
ENCODING 104
SWIDTH 1440 0
DWIDTH 16 0
BBX 15 31 1 -7
BITMAP
0000
0700
0700
0700
0E00
0E00
0E00
0E00
1CF8
1DFC
1FFC
1F1E
3C1C
3C1E
380E
380E
701C
701C
701C
701C
E038
E038
E038
E038
0000
0000
0000
0000
0000
0000
0000
ENDCHAR
STARTCHAR char105
ENCODING 105
SWIDTH 720 0
DWIDTH 8 0
BBX 8 31 1 -7
BITMAP
00
07
07
07
0E
00
00
00
1C
1C
1C
1C
38
38
38
38
70
70
70
70
E0
E0
E0
E0
00
00
00
00
00
00
00
ENDCHAR
STARTCHAR char106
ENCODING 106
SWIDTH 990 0
DWIDTH 11 0
BBX 14 31 -2 -7
BITMAP
0000
001C
001C
001C
0038
0000
0000
0000
0070
0070
0070
0070
00E0
00E0
00E0
00E0
01C0
01C0
01C0
01C0
0380
0380
0380
0380
0700
0F00
1F00
7E00
F800
F000
0000
ENDCHAR
STARTCHAR char107
ENCODING 107
SWIDTH 1440 0
DWIDTH 16 0
BBX 14 31 1 -7
BITMAP
0000
0700
0700
0700
0E00
0E00
0E00
0E00
1C0C
1C1C
1C3C
1C78
39E0
3BC0
3F80
3F80
7F80
7BC0
71E0
70F0
E0F0
E078
E038
E018
0000
0000
0000
0000
0000
0000
0000
ENDCHAR
STARTCHAR char108
ENCODING 108
SWIDTH 720 0
DWIDTH 8 0
BBX 8 31 1 -7
BITMAP
00
07
07
07
0E
0E
0E
0E
1C
1C
1C
1C
38
38
38
38
70
70
70
70
E0
E0
E0
E0
00
00
00
00
00
00
00
ENDCHAR
STARTCHAR char109
ENCODING 109
SWIDTH 2070 0
DWIDTH 23 0
BBX 23 31 1 -7
BITMAP
000000
000000
000000
000000
000000
000000
000000
000000
1CF0F0
1DF9F8
1FFBFC
1F9F9E
3E1E1C
3C1C1C
381C1C
381C1C
703838
703838
703838
703838
E07070
E07070
E07070
E07070
000000
000000
000000
000000
000000
000000
000000
ENDCHAR
STARTCHAR char110
ENCODING 110
SWIDTH 1440 0
DWIDTH 16 0
BBX 15 31 1 -7
BITMAP
0000
0000
0000
0000
0000
0000
0000
0000
1CF8
1DFC
1FFE
1F9E
3E1E
3C0E
380E
380E
701C
701C
701C
701C
E038
E038
E038
E038
0000
0000
0000
0000
0000
0000
0000
ENDCHAR
STARTCHAR char111
ENCODING 111
SWIDTH 1530 0
DWIDTH 17 0
BBX 15 31 2 -7
BITMAP
0000
0000
0000
0000
0000
0000
0000
0000
03F0
0FFC
0FFC
1F3E
381C
781E
700E
700E
E01C
E01C
F03C
F038
F9F0
FFF0
7FE0
1F80
0000
0000
0000
0000
0000
0000
0000
ENDCHAR
STARTCHAR char112
ENCODING 112
SWIDTH 1620 0
DWIDTH 18 0
BBX 19 31 -1 -7
BITMAP
000000
000000
000000
000000
000000
000000
000000
000000
073F00
077F80
07FFC0
07E3E0
0F01C0
0F01E0
0E00E0
0E00E0
1C01C0
1C01C0
1E03C0
1E0380
3F1F00
3FFE00
3BFC00
39F800
700000
700000
700000
700000
E00000
E00000
000000
ENDCHAR
STARTCHAR char113
ENCODING 113
SWIDTH 1620 0
DWIDTH 18 0
BBX 17 31 2 -7
BITMAP
000000
000000
000000
000000
000000
000000
000000
000000
03F380
07FB80
0FFF80
1F1F80
380F00
780F00
700700
700700
E00E00
E00E00
F01E00
701E00
F8FC00
7FFC00
3FDC00
1F9C00
003800
003800
003800
003800
007000
007000
000000
ENDCHAR
STARTCHAR char114
ENCODING 114
SWIDTH 1170 0
DWIDTH 13 0
BBX 13 31 1 -7
BITMAP
0000
0000
0000
0000
0000
0000
0000
0000
1C38
1C78
1DF8
1FE0
3F00
3E00
3C00
3800
7000
7000
7000
7000
E000
E000
E000
E000
0000
0000
0000
0000
0000
0000
0000
ENDCHAR
STARTCHAR char115
ENCODING 115
SWIDTH 1350 0
DWIDTH 15 0
BBX 15 31 1 -7
BITMAP
0000
0000
0000
0000
0000
0000
0000
0000
01E0
07F8
0FFC
1E1E
381C
3800
3E00
1FF0
1FF0
00F8
0038
7038
F0F0
7FE0
3FC0
0F00
0000
0000
0000
0000
0000
0000
0000
ENDCHAR
STARTCHAR char116
ENCODING 116
SWIDTH 1080 0
DWIDTH 12 0
BBX 14 31 -1 -7
BITMAP
0000
0070
0070
0070
00E0
00E0
00E0
03FC
07F8
07F8
01C0
01C0
0380
0380
0380
0380
0700
0700
0700
0700
0F00
0FE0
07E0
03E0
8000
0000
0000
0000
0000
0000
0000
ENDCHAR
STARTCHAR char117
ENCODING 117
SWIDTH 1530 0
DWIDTH 17 0
BBX 17 31 1 -7
BITMAP
000000
000000
000000
000000
000000
000000
000000
000000
1C0380
1C0380
1C0380
1C0380
380700
380700
380700
380700
700E00
700E00
700E00
700E00
F03C00
FFFC00
7FFC00
1FDC00
000000
000000
000000
000000
000000
000000
000000
ENDCHAR
STARTCHAR char118
ENCODING 118
SWIDTH 1620 0
DWIDTH 18 0
BBX 15 31 4 -7
BITMAP
0000
0000
0000
0000
0000
0000
0000
0000
E00E
E00E
701C
701C
7070
7070
38E0
38E0
3B80
3B80
1F00
1F00
1C00
1C00
0800
0800
0000
0000
0000
0000
0000
0000
0000
ENDCHAR
STARTCHAR char119
ENCODING 119
SWIDTH 2250 0
DWIDTH 25 0
BBX 23 31 3 -7
BITMAP
000000
000000
000000
000000
000000
000000
000000
000000
E0380E
E0380E
E07C0E
707C1C
E0F838
E1FC38
71DC70
71DC70
E3B8E0
771DC0
771DC0
761DC0
7C1F00
7C1F00
7C1F00
380E00
000000
000000
000000
000000
000000
000000
000000
ENDCHAR
STARTCHAR char120
ENCODING 120
SWIDTH 1620 0
DWIDTH 18 0
BBX 19 31 0 -7
BITMAP
000000
000000
000000
000000
000000
000000
000000
000000
1C00E0
1E01E0
0F03C0
078780
079E00
03FC00
01F800
00F000
03F000
07F800
0F3C00
1E1E00
781E00
F00F00
E00700
C00300
000000
000000
000000
000000
000000
000000
000000
ENDCHAR
STARTCHAR char121
ENCODING 121
SWIDTH 1530 0
DWIDTH 17 0
BBX 20 31 -2 -7
BITMAP
000000
000000
000000
000000
000000
000000
000000
000000
070070
070070
0780F0
0380E0
0783C0
038380
03C780
01C700
03DE00
01DC00
01FC00
00F800
01F000
00F000
00E000
00E000
03C000
038000
078000
7F0000
FE0000
F80000
000000
ENDCHAR
STARTCHAR char122
ENCODING 122
SWIDTH 1350 0
DWIDTH 15 0
BBX 16 31 0 -7
BITMAP
0000
0000
0000
0000
0000
0000
0000
0000
1FFF
1FFF
1FFF
000F
003C
0078
00F0
01E0
0780
0F00
1E00
3C00
F000
FFF8
FFF8
FFF8
0000
0000
0000
0000
0000
0000
0000
ENDCHAR
STARTCHAR char123
ENCODING 123
SWIDTH 1170 0
DWIDTH 13 0
BBX 13 31 3 -7
BITMAP
00F8
01C0
0300
0300
0600
0600
0700
0300
0600
0600
0600
0400
1000
7000
F000
F000
E000
2000
1000
1800
3000
3000
3000
7000
C000
C000
C000
C000
E000
7C00
0000
ENDCHAR
STARTCHAR char124
ENCODING 124
SWIDTH 720 0
DWIDTH 8 0
BBX 10 31 0 -7
BITMAP
01C0
01C0
01C0
01C0
0380
0380
0380
0380
0700
0700
0700
0700
0E00
0E00
0E00
0E00
1C00
1C00
1C00
1C00
3800
3800
3800
3800
7000
7000
7000
7000
E000
E000
0000
ENDCHAR
STARTCHAR char125
ENCODING 125
SWIDTH 1170 0
DWIDTH 13 0
BBX 14 31 -1 -7
BITMAP
01F0
0038
000C
000C
0018
0018
0038
0030
0060
0060
0060
0020
0020
0038
003C
003C
0070
0040
0080
0180
0300
0300
0300
0380
0300
0300
0300
0300
1C00
F800
0000
ENDCHAR
STARTCHAR char126
ENCODING 126
SWIDTH 1710 0
DWIDTH 19 0
BBX 19 31 1 -7
BITMAP
000000
000000
000000
000000
000000
000000
000000
000000
000000
000000
038020
0FC020
3FE1C0
39F380
60FF80
60FF80
80FC00
803800
000000
000000
000000
000000
000000
000000
000000
000000
000000
000000
000000
000000
000000
ENDCHAR
STARTCHAR char127
ENCODING 127
SWIDTH 1890 0
DWIDTH 21 0
BBX 24 31 0 -7
BITMAP
000000
00000E
00001F
000037
00006E
0000C0
0000C0
000180
000300
000600
000600
000C00
001800
003000
003000
006000
00C000
018000
018000
030000
060000
EC0000
EC0000
F80000
E00000
000000
000000
000000
000000
000000
000000
ENDCHAR
ENDFONT
